<?xml version="1.0" standalone="no"?><!DOCTYPE svg PUBLIC "-//W3C//DTD SVG 1.1//EN" "http://www.w3.org/Graphics/SVG/1.1/DTD/svg11.dtd"><svg t="1604743115696" class="icon" viewBox="0 0 1024 1024" version="1.1" xmlns="http://www.w3.org/2000/svg" p-id="5693" xmlns:xlink="http://www.w3.org/1999/xlink" width="200" height="200"><defs><style type="text/css"></style></defs><path d="M405.35948693 607.32192747c8.0849376-1.38733013 15.34904747-5.75998613 20.3515136-12.266576l124.02798614-160.73930027 151.25611733 109.3054752c7.72473387 5.58970773 17.49389653 7.55336427 26.76423253 5.31245973 9.26706133-2.19833493 17.12714453-8.3207072 21.51289814-16.7887712L952.10080107 141.0348576c8.3316224-16.0629056 2.06080213-35.8370016-14.00428694-44.168624-16.074912-8.32834773-35.8271776-2.04552107-44.16971626 14.00646933L708.59103787 468.25488747l-146.2121728-105.6586848c-14.31427947-10.32365867-34.30340693-7.48787307-45.1302592 6.54915946l-135.63091414 175.80127574-188.99565013 32.7468896L192.62204267 264.74411733c0-16.1698752-13.09831893-29.2692864-29.26819414-29.2692864-16.1600512 0-29.2583712 13.0994112-29.2583712 29.2692864l0 568.465968c0 16.168784 13.0994112 29.26819413 29.2583712 29.26819414l759.659952 0 0-29.26819414 0-29.26819413L923.01379947 316.58071573 798.1115008 557.46644907c-11.75574187 22.65572587-32.7774528 39.08101867-57.6839072 44.9698048-6.45310507 1.57834773-13.36574293 2.38826027-20.2761984 2.38826026-18.57014187 0-36.3511104-5.75889493-51.41199467-16.6403232l-108.00546666-78.07471573-91.47429654 118.56380373c-13.39630613 17.45023573-32.81893013 29.1404864-54.59925226 32.8964288l-222.03834347 38.44138454 0-55.83049494L405.35948693 607.32192747z" fill="" p-id="5694"></path></svg>