<?xml version="1.0" standalone="no"?><!DOCTYPE svg PUBLIC "-//W3C//DTD SVG 1.1//EN" "http://www.w3.org/Graphics/SVG/1.1/DTD/svg11.dtd"><svg t="1604743014061" class="icon" viewBox="0 0 1024 1024" version="1.1" xmlns="http://www.w3.org/2000/svg" p-id="2861" xmlns:xlink="http://www.w3.org/1999/xlink" width="200" height="200"><defs><style type="text/css"></style></defs><path d="M403.654 305.491c0 60.733-49.54 110.272-110.272 110.272S183.11 366.223 183.11 305.491s49.54-110.272 110.272-110.272 110.272 49.54 110.272 110.272z m-73.576 0c0-20.367-16.513-36.697-36.697-36.697s-36.697 16.513-36.697 36.697c0 20.183 16.513 36.697 36.697 36.697 20.183 0.183 36.697-16.33 36.697-36.697z" p-id="2862"></path><path d="M623.099 161.825l333.203 338.34c21.284 20.734 33.578 50.458 33.578 81.833 0 31.191-12.11 60.733-33.211 81.099L654.475 957.402c-41.834 40.549-121.465 40.733-163.483-0.183l-375.587-367.33c-64.769-62.934-81.282-88.071-81.282-173.39V254.852c0-152.474 31.008-220.545 214.674-220.545h151.556c93.209-0.183 147.519 53.393 222.747 127.52z m-19.817 742.734l302.194-294.122c6.973-6.789 10.826-17.063 10.826-28.439 0-11.559-4.036-22.202-11.926-29.724L601.998 244.208l-30.641-29.907c-74.861-73.943-110.64-106.603-171.188-106.603H248.613c-131.556 0-141.098 20.367-141.098 146.969v161.647c0 58.163 1.651 65.136 59.082 120.731l375.587 367.514c7.34 7.156 18.348 11.193 30.458 11.193s23.302-4.036 30.641-11.193z" p-id="2863"></path></svg>